<svg xmlns="http://www.w3.org/2000/svg" xmlns:xlink="http://www.w3.org/1999/xlink" xmlns:sketch="http://www.bohemiancoding.com/sketch/ns" viewBox="0 0 100 100" version="1.1" x="0px" y="0px"><title>Path 42</title><desc>Created with Sketch.</desc><g stroke="none" stroke-width="1" fill="none" fill-rule="evenodd" sketch:type="MSPage"><path d="M59.3210249,87.0015324 C59.6061426,87.7920098 60.0190005,88.2691713 60.2371248,88.5533544 C60.3055067,88.7492523 61.3591272,89.3840346 61.8893549,88.1614372 C62.259824,87.298873 62.2116226,86.7670075 62.4367715,86.2179635 C62.5906688,85.8426723 62.8213139,85.3271489 62.8213139,85.0726304 C62.8213139,84.0014686 61.8262493,84.2017076 61.7906412,82.5467 C61.931641,81.0788339 63.1167911,78.1021628 63.4614743,77.0404308 C63.8061575,75.9786989 63.436538,75.4643088 63.4614743,74.2554207 C63.4804526,73.3353726 63.8061575,72.4642591 63.8061575,72.4642591 L63.8061575,70.7909762 C63.8061575,70.7909762 64.2551019,70.6355755 64.2551019,70.3244704 C64.2551019,70.0133652 63.8156839,69.0198244 64.2551019,68.9418012 C64.69452,68.863778 64.6497575,69.3516995 65.6974527,70.0779056 C66.745148,70.8041117 67.9293911,71.6011309 67.9293911,71.6011309 L67.9752202,70.8315039 C67.9752202,70.8315039 67.2005874,70.0779056 66.6891104,70.0779056 C66.1776333,70.0779056 65.6974527,69.163412 65.6974527,69.163412 C65.6974527,69.163412 65.7695733,68.9418012 66.0159651,68.6218316 C66.2623569,68.3018621 66.3044036,67.9216051 66.5071205,68.2577524 C66.9196429,68.9418012 67.3533813,69.2689959 67.7899137,69.2689959 C68.226446,69.2689958 68.2322852,68.0337434 68.2322852,68.0337434 L69.1921037,67.8893624 C69.1921037,67.8893624 69.5910578,66.7727347 70.1375101,66.3988629 C70.5316265,66.1292163 71.0815104,65.9913457 71.2397606,65.6365218 C71.6174287,64.7897257 71.6390167,61.751715 72.7879405,61.8198983 C73.9368644,61.8880816 74.2499242,62.8666457 74.6338891,63.2673507 C74.8394112,63.4818332 75.2976876,63.5583591 75.2976876,63.5583591 C75.2976876,63.5583591 75.2602202,62.9270415 75.409185,62.9270415 C75.5969034,62.9270415 76.1972649,63.4956402 76.1972649,63.4956402 L76.1972649,64.4980799 C76.1972649,64.5832331 76.7946402,65.1218725 77.0520985,65.3923857 C77.4851037,65.8473471 77.9867298,65.5756527 78.4891428,65.7265626 C78.9744899,65.8723464 79.2171021,66.205333 79.2171021,66.205333 C79.2171021,66.205333 84.924881,66.4382671 85.2327803,62.5652999 C85.5406796,58.6923326 79.9433768,59.0809711 79.9433768,59.0809711 C79.9433768,59.0809711 79.8092559,58.7486187 79.4081372,58.3916705 C78.9950955,58.0241123 78.3131603,57.6296685 78.2028316,57.4884701 C77.985359,57.2101492 78.2642779,57.1158552 78.4891428,56.7781618 C78.600341,56.6111685 78.9061764,56.4613876 78.9599766,56.3523655 C79.1225717,56.0228792 78.98267,55.8322305 79.1161574,55.6376859 C79.3253399,55.3328233 79.7392525,55.2153504 79.7392525,55.2153504 C79.7392525,55.2153504 80.6173663,56.0126028 81.169788,55.7464877 C81.2418962,55.7117514 81.5406336,55.5995978 81.3260291,55.3528098 C81.2320032,55.2446831 80.7587135,55.2284224 80.569306,55.0596157 C80.4524564,54.9554752 80.5746354,54.6751559 80.569306,54.6322218 C80.5489019,54.4678454 81.2216174,54.6168057 81.3260291,54.6322218 C81.8222081,54.7054813 83.1063302,55.8958837 84.0204796,56.3523655 C85.0660822,56.8744887 86.4007303,56.9915127 87.1642363,57.3998863 C87.4258733,57.5398271 87.7258239,57.8799014 87.7258239,57.8799014 C87.7258239,57.8799014 88.2224705,58.0805736 88.4822455,58.4796469 C88.9446526,59.1900091 89.3359914,60.1202182 89.6998527,60.5031052 C90.2681271,61.1010937 91.6483137,61.5641048 91.6483137,61.5641048 C91.6483137,61.5641048 92.5184908,61.4807298 93.4320312,61.5641048 C93.7801196,61.5958734 93.909582,61.8626953 94.1311664,61.8198983 C94.4308932,61.7620088 94.0154621,60.8664904 94.0324529,60.8538574 C94.4285418,60.5593584 94.8048041,59.6145021 94.636553,58.5752735 C94.5660691,58.1399191 94.2298188,57.6952685 94.0324529,57.2632769 C93.2895955,55.6373218 90.7797881,56.3523657 90.7797881,56.3523657 C90.7797881,56.3523657 89.3677725,57.6759587 88.1631904,57.1915115 C86.9586083,56.7070642 86.2576122,55.5573712 83.8114144,53.9836194 C82.5524408,53.1736637 80.6703871,52.42624 79.5644989,51.7476576 C78.1717747,50.8930703 77.7113033,50.1840485 77.921706,50.0053718 C78.623796,49.4091477 78.8651323,50.9965833 79.9433768,50.929337 C81.0216212,50.8620907 81.8650639,49.7416853 82.155717,49.7416853 C82.3836915,49.7416853 84.2251604,50.3071658 85.367132,49.2063833 C85.6811017,48.903738 86.1033842,48.5970282 86.2299254,47.9706812 C86.8167226,45.0661832 84.8057856,44.4663771 84.8057856,44.4663771 C84.8057856,44.4663771 84.5681442,44.1492464 84.1858262,44.0507203 C83.6136344,43.9032623 82.8113928,43.9718489 82.7507719,44.131593 C82.6496463,44.3980724 82.1579326,44.4893561 82.0116568,44.3980724 C81.5801351,44.1287805 82.6774453,43.2514036 82.155717,42.7789779 C81.6339887,42.3065523 81.3438108,41.8681884 81.0548498,41.7326109 C80.7658888,41.5970335 79.4428105,42.6667154 79.2171021,41.7326107 C78.9913937,40.7985061 78.2912334,39.7995575 78.3901881,38.9122643 C78.4891428,38.0249712 79.7776129,37.009823 80.7658888,35.5768095 C81.1345379,35.0422632 81.8073554,33.0022992 81.8073554,33.0022992 C81.8073554,33.0022992 81.7896388,31.8374623 84.8057856,32.0046257 C85.8767803,32.0639832 86.2419706,31.5835344 86.5378247,31.1493703 C86.8975132,30.6215294 87.0478619,30.072949 86.8822968,29.5136701 C86.7426117,29.0418138 86.1237043,28.5266369 86.1237043,28.5266369 C86.1237043,28.5266369 85.4436356,28.3521763 85.1142276,28.3521763 C84.8294451,28.3521763 84.2598764,28.4675354 84.2598764,28.4675354 C84.2598764,28.4675354 83.9096455,26.720453 83.3302087,28.0678466 C82.7507719,29.4152402 82.4056158,30.5736611 81.9147523,30.381524 C81.692895,30.2946831 82.0322196,29.3353389 82.282531,29.1463322 C82.3585108,28.7327397 82.282531,26.8118296 82.282531,26.8118296 L81.4109336,26.0208308 C81.4109336,26.0208308 81.5398417,25.6665646 81.4109336,25.3750023 C81.2392099,24.9866006 80.7871099,24.6493232 80.6790547,24.8264397 C80.4898853,25.1365127 81.4109336,29.0626666 81.4109336,29.0626666 C81.4109336,29.0626666 81.5254461,33.6236898 79.9433731,33.8971821 C79.3017802,34.0080939 79.1655873,33.1250938 78.4891428,32.8531218 C77.4975757,32.4544513 76.0613454,32.5792959 76.0613454,32.5792959 C76.0613454,32.5792959 76.2646792,31.2763051 76.1345514,30.5997347 C76.089242,30.364159 75.8361194,30.0316825 75.5418483,30.1166839 C75.2475771,30.2016853 72.7006843,32.9710309 72.1907751,32.8531218 C71.9822287,32.8048985 71.8773549,32.3882014 72.0140918,32.067466 C72.0999755,31.8660139 72.2673903,31.7517928 72.3821719,31.6363875 C72.6796994,31.3372433 72.4025421,31.2717179 72.3821719,31.1914659 C72.3212072,30.951284 71.7172881,31.0234062 71.7172881,31.0234062 C71.7172881,31.0234062 71.699812,30.4665121 71.8014688,29.8999304 C71.8806541,29.4585934 72.0846445,29.071183 72.0846445,28.5484081 C72.0846445,27.3545028 70.8314547,27.099259 70.1375101,27.5599633 C69.6064959,27.9124994 69.2587746,29.1346963 68.9323853,29.2397123 C68.1794612,29.4819663 67.9752201,29.0626666 67.9752201,29.0626666 C67.9752201,29.0626666 68.9122608,28.7845965 69.1921037,28.3521763 C69.4971106,27.8808721 69.1423445,27.2481621 69.0169882,27.1503173 C68.9746952,27.1173061 68.3484628,26.8924566 68.0471597,27.1503173 C67.5538133,27.5725322 67.2973797,28.5672021 67.2005874,28.4675354 C66.7087084,27.9610485 67.3519702,26.6077681 67.2005874,26.4235553 C66.7617133,25.8895037 67.2205058,24.1158714 67.6554414,23.5423117 C68.0567591,23.0130847 68.2944359,22.7028333 67.6554414,22.099838 C66.9514842,21.4355397 66.5483406,21.6776545 66.0159651,21.9176314 C65.5413662,22.1315646 64.8968302,22.3142237 64.8968302,22.3142237 L63.8061575,22.3142237 C63.8061575,22.3142237 63.5382984,21.6900705 62.8213139,21.4786599 C62.4219355,21.3608989 61.405134,22.457026 60.8638077,23.1333943 C60.3224814,23.8097625 59.9920897,23.1333943 59.9920897,23.1333943 C59.9920897,23.1333943 57.9177795,23.0222246 57.1493579,23.3563408 C56.5874934,23.6006442 56.0231344,24.217342 54.4525858,24.9735534 C53.8752081,25.2515578 53.1198818,25.4129369 52.2385977,25.7749911 C51.7165166,25.9894755 51.328051,26.4835871 50.8519852,26.6990813 C49.1389451,27.4744995 47.719187,27.9501324 47.6582687,28.4675354 C47.474108,30.0316825 48.2889617,31.26991 47.5909119,31.1914659 C46.8928621,31.1130217 46.809224,30.1166839 46.809224,30.1166839 L46.4350534,29.7617424 C46.4350534,29.7617424 45.9973832,29.1095835 45.7661895,29.0626666 C45.5349959,29.0157496 45.4995364,29.7617424 45.2333659,29.7617426 C44.9671954,29.7617428 43.3966583,27.8389757 43.0262114,27.9610485 C42.6557645,28.0831212 43.4741307,29.7312026 43.6819899,30.2729651 C43.7567242,30.4677519 43.0134849,30.5037595 42.4411666,30.0316825 C41.4216908,29.1907675 40.1748006,27.5189441 39.5771484,27.8251677 C38.6439832,28.3033005 39.9340466,29.5455698 40.3907961,30.7041043 C40.7102108,31.5142924 40.6092756,32.2130981 40.2117009,32.3149417 C39.2456112,32.5624175 37.6747577,29.1463322 36.1768692,29.1463322 C34.6789808,29.1463322 33.9989282,30.1166839 33.9691722,30.1166839 C33.5090117,30.1166839 33.2968711,29.8999304 32.9338563,30.1166839 C32.5708414,30.3334375 32.1396859,31.6363875 30.6539182,31.0083488 C29.9048533,30.1477701 30.922098,30.7038061 31.229978,30.4985223 C31.4045491,30.3821244 30.8726118,29.8113563 30.7832647,29.6804446 C30.5363419,29.3186522 29.7852151,29.7617424 29.7852151,29.7617424 C29.7852151,29.7617424 29.4522252,28.2445009 29.1329945,27.5599633 C28.8922255,27.0436739 28.0286334,26.0208308 28.0286334,26.0208308 C28.0286334,26.0208308 28.2932516,25.5569883 28.1729951,25.3750023 C28.0856537,25.2428273 27.4058398,25.0783477 27.4058398,25.0783477 C27.4058398,25.0783477 27.9274058,24.8514552 28.1729951,24.1155247 C28.6462106,22.6974918 28.6849671,20.2994478 26.1315492,20.3730346 C24.6643859,20.4153167 23.6747049,21.6092198 23.5832695,22.7242339 C23.5182081,23.5176282 24.1913548,24.0989012 24.1924952,24.9735533 C24.1930075,25.3664127 23.959248,25.5327969 23.863008,25.8895037 C23.6785877,26.5730445 23.5290972,27.3690958 23.2031893,27.683337 C21.7964076,29.0397595 18.2439789,26.4936624 17.2819472,27.5599635 C16.8602371,28.0273805 17.1981111,29.087067 17.7133438,29.8999306 C18.3734927,30.9414229 19.3232725,31.7632681 19.3232725,32.3953895 C19.3232725,33.5208687 18.9043582,33.4897218 18.9043582,34.1433825 C18.9043582,34.5522488 20.2406654,35.6721932 20.9226481,36.6352592 C21.3309615,37.2118614 21.1951505,37.6415544 21.1951505,37.6415544 C21.1951505,37.6415544 20.7746683,37.6415544 20.5811609,37.2728304 C20.5091596,37.1356336 20.2776874,36.9651629 20.0568399,37.0134547 C19.9031473,37.0470621 19.7770467,37.2515353 19.6194733,37.3751964 C19.3949441,37.5514036 19.1021905,37.7197413 19.1602174,38.2428785 C19.2258421,38.8345136 19.1528005,39.0754672 19.9637344,39.1797154 C20.7746683,39.2839635 20.504113,38.7394287 20.7746683,38.5829448 C21.0534891,38.4216804 21.3456102,38.5319334 21.3564569,38.5829448 C21.4590779,39.0655685 21.6152189,39.6941092 21.7711501,40.0474582 C22.1452524,40.8951956 22.2410788,40.6839127 23.3230083,41.2954002 C23.9310992,41.6390824 25.2656739,41.8821895 25.7404339,42.1958079 C26.1866189,42.4905501 26.4366686,42.9797315 26.4935389,43.0262715 C26.718587,43.2104401 25.9947109,43.0608026 25.7404339,43.1475199 C25.5561202,43.2103773 25.5325565,43.3471222 25.3141025,43.3875275 C24.5503097,43.5287985 23.7072263,43.5449143 23.6935006,43.5528552 C23.358003,43.7469531 23.6322867,44.1169216 23.4805761,44.3980727 C23.2468367,44.83124 22.8955325,45.1515437 22.5719536,45.4294432 C22.2562662,45.7005652 21.957455,45.4294432 21.9263661,45.4294432 C21.9192246,45.4294432 21.8672858,45.2708314 22.0112102,45.1355205 C22.1583193,44.9972155 22.5021809,44.8800496 22.5719536,44.6820988 C22.6192241,44.5479883 22.5609531,44.3048983 22.5027878,44.2125875 C22.2829216,43.8636502 21.0123118,44.0065122 20.9226481,44.0507205 C20.8185459,44.1020477 20.3810372,44.3472538 20.4427693,44.758175 C20.4660729,44.9132962 20.536176,44.8848878 20.7746683,44.9926574 C20.8745583,45.0377956 20.7409307,45.2531223 20.7746683,45.4294432 C20.821481,45.6740974 21.0839546,45.8282212 21.0839546,45.8282212 C21.0839546,45.8282212 20.1135234,46.356687 19.0700064,47.0145371 C18.0264894,47.6723872 18.235888,47.9194274 18.0264894,48.0451791 C17.3196643,48.4696539 16.8073787,48.6988186 16.6885204,48.7914306 C16.3060528,49.0894422 17.1653241,49.368408 17.1653241,49.368408 C17.1653241,49.368408 17.9675936,49.5732887 19.4267498,49.5243248 C21.3262478,49.4605847 24.0764419,49.1414625 24.9336607,49.1684726 C26.0641867,49.2040942 26.4935391,49.7306138 26.4935391,49.9019132 C26.4935391,50.3028769 25.4991812,50.5208639 25.4297609,50.8255748 C25.3603405,51.1302857 25.6607206,51.4678186 26.3606949,51.1041365 C26.6801251,50.9381719 27.0564337,49.9955559 27.3260008,49.9019132 C27.6443155,49.7913365 28.0286335,49.7759763 28.0286335,49.9019132 C28.0286335,50.0641011 27.6589269,50.1166439 27.5325334,50.2245542 C27.2955431,50.426888 27.2473908,50.6382015 27.40584,50.8255748 C27.6487946,51.1128795 28.9242473,50.7389005 29.7086324,51.0378962 C30.1422538,51.2031861 29.793283,51.7308508 30.1607728,51.8774671 C30.3023935,51.9339691 30.5496995,51.8247561 30.6539182,51.8774671 C30.9440961,52.0242311 30.7832649,52.4016222 30.7832649,52.4016222 C30.7832649,52.4016222 30.8298176,52.911327 31.3655962,52.5766036 C31.546075,52.4638509 31.4957918,52.0506499 31.6679477,52.0744275 C32.0068624,52.1212372 32.496709,52.7799588 32.3269222,53.1849101 C32.084031,53.7642194 31.8456549,53.5352697 31.3655962,53.1849101 C31.0044686,52.9213496 30.4384685,52.6111901 30.0101398,52.4016222 C29.7669052,52.2826151 30.0066863,51.9653592 29.7852153,51.8774671 C29.6200955,51.8119384 29.448232,51.9224755 29.311487,51.8774671 C29.1097526,51.8110682 28.7123919,52.0744275 28.7123919,52.0744275 C28.7123919,52.0744275 26.7960575,52.0302153 26.1315494,52.4016222 C24.9469669,53.0637089 24.3236586,54.2308523 23.9356111,54.2308523 C23.3298829,54.2308523 18.9324437,54.3588557 18.4109112,54.8005438 C17.7341596,55.3736877 22.5390198,54.8566713 23.9356111,55.35281 C24.20786,55.4495264 23.8587342,55.7950536 23.8630081,55.9627558 C23.8710774,56.2793806 24.2357816,56.4351158 24.3226862,56.778162 C24.4007118,57.0861592 24.196468,57.6839875 24.3226862,57.99945 C24.780017,59.1424756 25.9225544,59.9477623 27.6380609,60.1814359 C29.9374131,60.4946365 31.4408356,59.2155976 32.0630429,57.8799016 C32.6391709,56.6431244 32.4164698,55.35281 32.4164698,55.35281 C32.4164698,55.35281 32.584005,55.0451085 32.9338564,55.0596159 C33.4589759,55.0813911 34.2520293,55.4818746 34.3641469,55.9627558 C34.5509609,56.7640154 32.6404898,57.5023132 32.6404898,57.5023132 C32.6404898,57.5023132 32.7586534,57.8004756 33.1313437,57.8150577 C33.3950379,57.8253751 33.9120415,57.6423601 34.177333,57.7033415 C34.6203829,57.8051836 34.7718232,58.0259126 35.1123073,57.99945 C35.612783,57.9605526 36.6394419,57.1915117 36.6394419,57.1915117 C36.6394419,57.1915117 36.1904975,58.1245842 36.9165272,57.99945 C37.6425568,57.8743158 36.9165272,57.2500946 36.9165272,57.1915117 C38.3324659,57.151174 38.6373502,57.8799016 38.6373502,57.8799016 C38.6373502,57.8799016 37.6718031,57.4363764 38.0100943,58.2652615 C38.3483855,59.0941466 38.6373502,58.1204897 38.7220134,58.133145 C38.8066767,58.1458004 38.9140605,58.7050261 38.356888,58.834953 C37.7540166,58.9755365 36.8331575,58.9896711 36.0451107,59.0809713 C35.2507676,59.173001 34.5910007,59.3420225 34.4349409,59.4403451 C33.9809713,59.7263602 35.2400861,60.5870747 35.5444879,60.5870747 C35.8488897,60.5870747 36.8345172,59.2787817 39.312606,59.5253465 C41.7906948,59.7719113 42.2198001,61.564105 42.5825134,61.564105 C42.9452267,61.564105 43.1403623,61.4976825 43.1403623,61.4976825 C43.1403623,61.4976825 44.339276,60.1987397 44.5748739,60.7184018 C44.8104717,61.238064 43.2375079,62.1177677 43.68199,62.5653001 C44.4327433,62.7161776 45.6678091,60.8934229 45.837466,61.4976825 C46.2957565,63.129956 43.4112968,63.7446338 43.4112968,63.7446338 C43.4112968,63.7446338 43.0779278,64.2826917 42.715659,64.9275497 C42.4016421,65.4865167 42.0771992,66.1288435 41.7906948,66.532285 C41.5015374,66.9394623 40.6927257,67.5727932 40.6927257,67.5727932 L39.9871382,69.5097929 C39.9871382,69.5097929 36.0393134,73.5031192 32.6404898,77.2155339 C29.8595092,80.2531006 27.4099405,83.0515478 27.8337392,83.2231292 C28.2575379,83.3947106 32.7670948,78.0158831 36.4136129,74.0432818 C38.6213729,71.6380969 40.5428464,69.818773 40.5428464,69.818773 C40.5428464,69.818773 42.1053485,68.5997188 42.7999303,68.0337436 C43.1993779,67.7082565 43.8898492,67.2179731 43.8898492,67.2179731 C43.8898492,67.2179731 44.9420797,67.8392422 45.2968935,67.3932884 C45.6517073,66.9473347 44.7078213,66.256014 44.7993159,66.2053332 L47.7352436,60.9618701 C47.7352436,60.9618701 47.7802285,61.5175971 47.834922,61.8198985 C47.8896154,62.1221999 49.1419292,61.5484654 49.5028606,61.6333812 C50.0612703,61.7647573 50.0029406,62.3140602 50.0029406,62.3140602 L50.0772019,64.4980801 C50.0772019,64.4980801 51.1187892,64.4980801 51.0406686,65.3187382 C50.8172517,65.4912911 50.0772019,65.9937708 50.5762267,66.532285 C51.0752515,67.0707992 51.9288489,64.4838727 52.2326477,64.6679007 C52.3753471,65.1445179 52.1724021,65.8492731 51.9575826,66.6344385 C51.6956887,67.5916603 51.3562936,68.6836236 50.8519853,69.818773 C50.7161439,70.1245389 50.4902099,70.4457885 50.3779856,70.7909765 C50.2304525,71.2447699 50.1294181,71.5936918 49.9559959,71.9795692 C49.837533,72.2431582 49.6253518,72.4430787 49.5381369,72.6932774 C49.3653299,73.1890197 48.8986097,74.1686285 48.8986097,74.1686285 C48.8986097,74.1686285 49.2863222,74.2276123 49.3237652,74.1686285 C49.3386676,74.1451528 50.0189113,73.4177889 50.0772019,73.2815782 C50.1936309,73.0095125 50.1752487,72.6478687 50.2403777,72.3886385 C50.3298182,72.0326421 50.4807695,71.8175809 50.4807695,71.8175809 C50.4807695,71.8175809 51.0862823,71.6156537 51.6237235,71.1362339 C51.951402,70.8439311 52.1706014,70.2880453 52.4534415,70.0779058 C52.9708954,69.6934571 53.0732139,70.0139927 53.1418431,69.5798583 C53.3095113,68.519223 53.8669951,67.7973149 53.9737018,68.1678333 C54.037094,68.3879502 53.9718321,68.422607 54.0900837,68.9418014 C54.1789054,69.3317813 54.4694154,69.5464123 54.4525859,69.9726255 C54.4417169,70.247888 54.2051129,70.2498858 54.0900837,70.4994824 C53.964833,70.7712578 53.9612773,71.2878271 53.9737018,71.5178902 C54.0106183,72.2014677 54.6613837,72.575963 54.7991083,72.0289915 C54.861342,71.7818312 54.9040264,71.338907 54.8831987,70.8751582 C54.8726906,70.6411831 54.7885432,70.4023113 54.7991083,70.1797861 C54.8121148,69.9058401 55.0259474,69.8596112 55.045681,69.657756 C55.0682133,69.4272726 55.0636913,69.1271339 54.9653293,68.8854576 C54.8695793,68.6501989 54.6805536,68.4732707 54.6560431,68.2577527 C54.6044691,67.8042687 54.8885905,67.4304462 54.9974399,67.4304462 C55.5362636,67.4304462 55.4320627,68.4750223 55.5362636,68.9418014 C56.5018409,69.1162668 56.4419219,66.5184151 57.5065839,67.0389844 C58.5392164,67.5438927 57.97535,68.3327615 57.7929556,68.9418014 C57.4325434,70.1452671 56.7795642,71.476098 56.7360819,71.6011309 C56.6705945,71.7894393 57.1957479,72.0123821 57.2376394,72.0289915 C57.4316594,72.1059177 57.9966841,71.0383609 57.9966841,71.0383609 C57.9966841,71.0383609 59.8800799,74.2935805 58.1480106,77.0404311 C58.2350257,80.4163527 58.5392164,84.0014688 58.5392164,84.0014688 C58.5392164,84.0014688 58.855914,85.7120308 59.3210249,87.0015324 Z M48.7648611,58.7881363 C48.7648611,58.7881363 48.9159464,59.2453528 49.2212226,59.0860662 C49.5264987,58.9267797 49.4292023,58.1930354 49.9178553,58.2641937 C50.4065082,58.335352 49.940197,58.9437192 50.2777947,59.0111132 C50.6153925,59.0785071 51.2940554,59.2058754 51.4411306,58.7881362 C51.5882059,58.3703971 51.3418443,57.7532139 51.0594827,57.8704247 C50.777121,57.9876356 50.6935432,58.2984979 50.4228801,58.2005641 C50.1522169,58.1026304 50.4624077,57.7071006 50.0815436,57.6281708 C49.7006795,57.5492409 49.26271,58.1511722 49.1231121,58.1511722 C48.9835142,58.1511722 48.8747605,58.212525 48.7648611,58.2641937 C48.6549616,58.3158624 48.7648611,58.7881363 48.7648611,58.7881363 Z M29.0911454,44.5377126 C29.4032055,44.5377126 29.4704373,44.6030409 29.671336,44.6248086 C29.9012686,44.6497222 30.2691688,44.5284943 30.5242098,44.5377126 C30.8103644,44.5480554 30.9773659,44.6874043 31.0981592,44.690199 C31.462938,44.6986385 31.8030532,44.5349944 31.8030532,44.3257555 C31.8030532,43.8833232 31.4117791,43.838735 31.1857169,43.4860328 C31.1049496,43.3600197 31.1364085,43.0260142 30.9782497,42.8122145 C30.8579408,42.6495805 30.6852147,42.6148139 30.6852147,42.7350454 C30.6852147,42.9471898 30.7062599,43.212764 30.6125816,43.3400125 C30.5288467,43.4537543 30.3377557,43.4438234 30.210009,43.397601 C29.9393459,43.2996672 29.9748936,43.159931 29.5940295,43.0810011 C29.2131654,43.0020712 29.0280701,43.1749276 28.8884722,43.1749276 C28.7488743,43.1749276 28.1629551,43.7023309 28.1629551,43.8758249 C28.1629551,44.0493188 28.6729306,44.5377127 29.0911454,44.5377126 Z M34.2713731,42.0522717 C34.4498233,42.0522717 34.4639692,41.8416704 34.2290717,41.5723477 C34.2258979,41.5687089 34.0530887,41.464402 34.0496748,41.4608441 C33.8639034,41.2672397 33.6485972,41.1822824 33.5899063,41.1822824 C33.4503084,41.1822824 33.3803308,41.5371025 33.3803308,41.7105964 C33.3803308,41.8840904 33.8531583,42.0522718 34.2713731,42.0522717 Z M38.8382143,34.300387 C39.0217136,34.3182824 39.2564916,34.0941979 39.4422159,34.0941979 C39.7647008,34.0941979 39.7902644,33.8835966 39.3657711,33.6142739 C39.3600357,33.6106351 38.921027,33.1575796 38.9148575,33.1540217 C38.5791421,32.9604174 38.3167706,33.2242086 38.2107077,33.2242086 C37.9584344,33.2242086 38.006235,33.5187271 38.006235,33.692221 C38.006235,33.8230805 38.2749936,34.2454599 38.8382143,34.300387 Z M33.1232908,34.2510255 C33.3067901,34.2689209 33.5278205,34.5920061 33.8662981,34.4820471 C34.2047756,34.3720882 33.8079339,33.7783836 34.1872828,33.9053734 C34.5294086,34.0199025 35.1490566,34.5795071 35.4690505,34.5632235 C35.8035303,34.5462027 36.021768,34.0276163 36.0721255,33.9795674 C36.1738642,33.882493 34.4559912,33.630146 34.2857551,33.5221385 C34.2800197,33.5184996 33.1294604,33.1575796 33.1232909,33.1540217 C32.7875755,32.9604174 31.4311968,32.9971941 31.3251339,32.9971941 C31.0728605,32.9971941 31.8286511,33.4121527 31.8286511,33.5856467 C31.8286511,33.7165062 32.5600702,34.1960984 33.1232908,34.2510255 Z M24.4673193,37.7840176 C24.6326181,38.0188427 25.1333529,38.5979531 25.3691579,38.8985378 C25.8456407,39.5059182 26.0781644,39.8332327 26.1407152,39.885738 C26.1650862,39.906195 26.6561871,39.5355019 26.7407448,39.5355019 C26.8253026,39.5355019 27.0382723,40.1407119 26.7407448,40.1813304 C26.4432174,40.2219489 26.5976579,40.7048323 26.6277399,40.7609488 C26.6744822,40.8481443 26.807528,41.0801681 27.289247,41.2238725 C27.5578222,41.3039928 28.1182259,41.2258543 28.4339498,41.2812181 C29.1270173,41.4027511 29.4544918,41.7488169 29.5513059,41.5109342 C29.6084956,41.3704129 29.2859981,40.9592651 29.0613865,40.3332704 C28.9057624,39.8995444 28.8789082,39.3822183 28.7204725,38.6996951 C28.6332051,38.3237573 28.4840128,38.217773 28.3932464,37.9228431 C28.3552192,37.7992804 28.3319698,37.5802947 28.2708042,37.467691 C28.2612563,37.4501136 28.2105798,37.2908963 28.2001611,37.2735538 C28.0128888,36.9618298 27.8154426,36.70818 27.6299202,36.4684084 C27.437095,36.2191986 27.3314502,35.9319737 27.1034884,35.782265 C27.0000865,35.7143581 26.5864475,35.537567 26.4908254,35.4960835 C26.3622438,35.4403011 26.0389413,35.4402698 25.8194591,35.4037659 C25.6372212,35.3734564 25.5671458,35.2977947 25.3691579,35.3286004 C25.2200114,35.3518066 24.9759832,35.5335154 24.873299,35.5650864 C24.7735682,35.5957493 24.5810418,35.5237793 24.5068168,35.5650864 C24.1538125,35.7615374 24.1761939,36.1943408 24.1759426,36.7281484 C24.1757217,37.197524 24.0392667,37.1759219 24.4673193,37.7840176 Z M82.7429215,42.4817471 C82.6914349,42.6019045 82.6887461,42.795359 82.856733,42.8871676 C82.9175707,42.9204167 83.1421275,42.936142 83.1954011,42.936142 C83.3957757,42.936142 83.588499,42.6946855 83.5778556,42.4817471 C83.5672122,42.2688086 83.3617389,42.0563851 83.1554137,42.0563851 C82.9490886,42.0563851 82.8130544,42.3180738 82.7429215,42.4817471 Z M87.5742375,47.5180134 C87.5227508,47.6381708 87.5980846,48.0138681 87.7660715,48.1056766 C87.8269092,48.1389257 88.167633,48.1586279 88.2209067,48.1586279 C88.4212812,48.1586279 88.6819455,48.0180288 88.6713021,47.8050904 C88.6654232,47.6874741 88.7439209,47.429697 88.6033612,47.3199905 C88.4894447,47.2310789 88.0957646,47.1759435 88.003403,47.1759435 C87.7970779,47.1759435 87.6443703,47.3543401 87.5742375,47.5180134 Z M89.8775877,52.7412886 C89.8571731,53.0892479 90.2303513,53.6823755 90.9879488,53.7515302 C91.7455462,53.8206849 91.9418298,53.3427258 92.0104807,53.1376076 C92.1727218,52.6528568 91.8861059,52.2333082 91.7455462,52.1236016 C91.6316297,52.0346901 90.8556874,51.9251537 90.7633258,51.9251537 C90.5570007,51.9251537 89.8952953,52.4394679 89.8775877,52.7412886 Z M47.7534245,63.7208281 C47.7330099,64.0687874 47.9677853,64.4572438 48.7253828,64.5263985 C49.4829802,64.5955532 49.317285,64.2354728 49.3859359,64.0303547 C49.548177,63.5456038 49.5264957,63.1756596 49.385936,63.0659531 C49.2720195,62.9770415 48.4960772,62.8675052 48.4037156,62.8675052 C48.1973905,62.8675052 47.7711322,63.4190074 47.7534245,63.7208281 Z M66.3935127,71.8560388 C66.7689358,71.9237634 67.02015,71.8388217 67.1270529,71.6566801 C67.2320491,71.4777871 67.1967004,71.2027315 67.1270529,71.1483718 C67.0131364,71.0594602 66.7646009,70.9648684 66.6761759,70.9359593 C65.9237643,70.6899714 66.1647419,71.8147695 66.3935127,71.8560388 Z M51.1155027,81.2087123 C51.2561056,81.2371039 51.6103667,80.7869183 51.4605175,80.4982827 C51.3945406,80.3711996 50.9584104,80.407947 50.8699853,80.3790379 C50.1175737,80.1330499 50.9748998,81.1803206 51.1155027,81.2087123 Z M47.1198828,70.2099563 C47.1866968,70.4921002 48.0391624,70.9837307 48.0874785,70.993487 C48.1495078,71.0060125 48.6021251,71.0263415 48.8929269,70.8458275 C49.0324042,70.7592475 49.268002,70.960071 49.4550572,70.4921002 C49.6421123,70.0241295 49.1791352,70.0213587 49.1918413,69.9459662 C49.25553,69.5680635 49.1439175,69.4353392 49.0893287,69.3301918 C49.0233518,69.2031087 48.0522269,69.0860036 47.9638019,69.0570945 C47.4973006,68.90458 47.0087643,69.7407222 47.1198828,70.2099563 Z M48.0254445,72.3434004 C48.040316,72.3737406 48.1760494,72.7541164 48.4668512,72.5736024 C48.6063285,72.4870224 49.0850492,72.293264 49.0977553,72.2178715 C49.1358087,71.9920784 49.1721049,71.5508696 48.861675,71.3882275 C48.6525483,71.2786607 48.1081665,71.3524255 47.9736756,71.4884381 C47.8787146,71.5844735 47.9057813,72.0992701 48.0254445,72.3434004 Z M45.6272249,69.4751496 C45.6420965,69.5054898 46.0356187,69.9935746 46.3264204,69.8130605 C46.4658977,69.7264805 46.861312,69.2567105 46.8740181,69.181318 C46.9120714,68.9555248 46.7587497,68.4491989 46.4483199,68.2865568 C46.2391931,68.17699 45.7617158,68.4125558 45.6272249,68.5485683 C45.5322639,68.6446037 45.5075618,69.2310193 45.6272249,69.4751496 Z M47.0634243,66.045743 C47.0745113,66.0641336 47.3678891,66.3599855 47.584687,66.2505672 C47.6886698,66.1980868 47.9834582,65.9133364 47.9929308,65.8676373 C48.0213002,65.7307732 47.9069962,65.4238644 47.6755652,65.3252792 C47.5196574,65.2588654 47.1636896,65.4016533 47.0634243,65.4840971 C46.9926291,65.5423088 46.9742133,65.8977637 47.0634243,66.045743 Z M40.3945643,71.1550877 C40.4056514,71.1734784 40.52037,71.5650095 40.7371679,71.4555911 C40.8411507,71.4031108 41.1351523,71.1365735 41.1446249,71.0908744 C41.1729943,70.9540102 41.2381363,70.5332092 41.0067052,70.434624 C40.8507975,70.3682102 40.4948297,70.510998 40.3945643,70.5934418 C40.3237692,70.6516536 40.3053534,71.0071085 40.3945643,71.1550877 Z M45.3561397,76.491074 C45.3672267,76.5094646 45.7389796,76.9316942 45.9557775,76.8222758 C46.0597603,76.7697955 46.2941841,76.4106339 46.3036566,76.3649348 C46.3320261,76.2280707 46.2761029,76.0043849 46.0446719,75.9057997 C45.8887641,75.8393859 45.456405,75.9297687 45.3561397,76.0122125 C45.2853446,76.0704242 45.2669287,76.3430947 45.3561397,76.491074 Z M26.0905444,63.4757829 C26.0928717,63.4796434 26.5031989,63.4929932 26.5890566,63.4757829 C26.9122045,63.4110072 27.3145368,63.2088771 27.3220209,63.1727711 C27.3503904,63.0359069 27.0105076,62.9890938 26.7790765,62.8905086 C26.6505585,62.8357623 26.0013334,63.3278036 26.0905444,63.4757829 Z M15.357277,55.2217276 C15.3564863,55.2256502 16.0200902,55.238938 16.105948,55.2217276 C16.4290959,55.156952 16.6335551,54.9524994 16.5887536,54.9187158 C16.377329,54.7592862 15.4336469,54.8428571 15.357277,55.2217276 Z M14.8322302,53.8261797 C14.6239791,54.2869783 15.1434576,54.3178496 15.2293154,54.3006393 C15.5524633,54.2358636 15.582589,53.7061411 15.5377875,53.6723575 C15.3263629,53.5129279 15.0404813,53.365381 14.8322302,53.8261797 Z M18.4037957,50.3539636 C18.1955446,50.8147623 18.093434,51.7176593 19.2796041,51.3408906 C20.4657742,50.9641219 20.3631225,50.3932175 20.1470508,50.2134077 C19.9309791,50.0335979 18.6120468,49.893165 18.4037957,50.3539636 Z M15.5393855,46.637156 C15.4126595,46.8999089 15.4664152,47.4416912 16.1882293,47.2268532 C16.9100434,47.0120153 16.5943875,46.6645565 16.4629025,46.5620268 C16.3314175,46.4594971 15.6661115,46.3744032 15.5393855,46.637156 Z M18.9230818,44.1675315 C18.7963558,44.4302843 18.7894838,44.7416248 19.0412425,44.9335155 C19.2930011,45.1254062 19.6706994,44.9463257 19.8271817,44.5569286 C19.983664,44.1675315 19.0498078,43.9047786 18.9230818,44.1675315 Z M19.9690409,43.0276627 C19.2386394,43.3202999 19.3579759,43.6734608 19.6097346,43.8653515 C19.8614932,44.0572422 20.566146,44.0029623 20.7226283,43.6135652 C20.8791106,43.2241681 20.6994424,42.7350255 19.9690409,43.0276627 Z M21.7418437,41.8395557 C21.4949546,41.5499814 21.6963161,41.09138 21.1021356,41.0913612 C20.7744055,41.0913509 20.7479743,41.3301032 20.7407188,41.5522813 C20.7340818,41.7555166 20.7292888,41.9684309 20.8495629,42.060104 C20.9530134,42.1389541 21.155348,42.1978335 21.4405474,42.339455 C21.8494133,42.5424855 22.2688183,43.0215912 22.3510393,42.5616122 C22.4782155,41.8501358 22.0322078,42.1801213 21.7418437,41.8395557 Z M27.7396781,40.325395 C27.6373764,40.1877094 27.7208132,39.9696553 27.4746068,39.9696464 C27.3388076,39.9696414 27.3278555,40.0831625 27.3248491,40.1888029 C27.322099,40.2854364 27.3201129,40.3866721 27.36995,40.4302605 C27.4128161,40.4677519 27.496656,40.4957476 27.6148321,40.5630853 C27.784251,40.6596215 27.9580368,40.8874249 27.9921062,40.6687157 C28.0448032,40.3304256 27.8599942,40.4873259 27.7396781,40.325395 Z M18.7786899,42.2524803 C18.5318008,41.9629061 17.7900592,41.9032385 17.7828036,42.1254167 C17.7761667,42.3286519 17.7141981,42.6245273 17.8916477,42.6332393 C18.5913332,42.6675907 18.0192231,42.9689207 18.8228607,42.9689207 C19.6264984,42.9689207 19.069054,42.5930459 18.7786899,42.2524803 Z M18.1202582,40.3638707 C17.7998162,40.2215844 17.5734962,40.9501092 17.7400574,40.9152262 C18.4061173,40.7757328 17.8198966,41.1892343 18.6235342,41.1892343 C19.4271719,41.1892343 18.4407002,40.506157 18.1202582,40.3638707 Z M19.4706839,41.841077 C19.1502419,41.6987907 19.1401665,42.3532522 19.2435238,42.4482264 C19.4443533,42.6327671 19.5805878,42.6664406 19.9739599,42.6664406 C20.367332,42.6664406 19.7911259,41.9833633 19.4706839,41.841077 Z M15.2337475,38.3936597 C14.7204915,38.3936597 14.9772264,38.8068389 15.0532365,38.9056591 C15.2009288,39.0976729 15.3011172,39.1327101 15.5904075,39.1327101 C15.8796978,39.13271 15.7470034,38.3936597 15.2337475,38.3936597 Z M15.0234023,24.7886175 C14.2581425,24.7886175 14.5199352,25.5679061 14.6332655,25.6971526 C14.8534734,25.9482868 15.2111948,26.0987236 15.4309032,25.7913525 C15.6506115,25.4839813 15.7886622,24.7886175 15.0234023,24.7886175 Z M31.2577168,17.6753278 C30.9361894,17.4644636 30.8230937,17.5129052 30.8228226,17.233442 C30.8223538,16.7502697 30.0601142,16.7502697 29.7015772,16.7502697 C29.3832881,16.7502697 28.9891153,16.6189425 28.8368541,16.9957416 C28.6845929,17.3725407 28.6916588,17.5111733 28.4488142,17.7977906 C27.9897391,18.3396138 29.0174906,19.2623066 29.8162706,19.1652809 C31.1403701,19.0044462 31.5792442,17.886192 31.2577168,17.6753278 Z M36.5342159,24.0793635 C36.0727287,23.9353165 35.5676988,23.7137057 35.4578949,23.7137057 C35.1396059,23.7137057 34.4739559,24.4105654 35.0630711,25.2289467 C35.4817222,25.8105243 35.7354359,26.2304176 36.5342159,26.1333919 C37.3504027,26.0342519 36.995703,24.2234105 36.5342159,24.0793635 Z M41.8825339,18.6932196 C41.8014996,18.6505706 41.4668616,18.3270416 41.3690067,18.3069186 C41.3355912,18.300047 41.1595908,18.3567658 41.1530068,18.3567658 C41.078032,18.3567658 41.2302372,18.571297 41.3690066,18.8963425 C41.4676223,19.1273342 41.8789293,19.3594613 42.0670866,19.3209245 C42.2593441,19.281548 41.9912399,18.7504323 41.8825339,18.6932196 Z M29.3833362,21.6122283 C29.3001784,21.5750582 28.5837229,21.8492545 28.7224924,22.1743001 C28.821108,22.4052917 29.1605659,22.5054845 29.3487231,22.4669477 C29.5409806,22.4275712 29.7856073,21.7920366 29.3833362,21.6122283 Z M35.4731814,21.1058932 C34.8483321,20.5494983 34.7170278,21.0681126 34.8723376,21.3824513 C35.2724721,22.1923021 35.5687291,21.9864773 35.6336738,21.8709664 C35.6986184,21.7554556 35.7991967,21.3961923 35.4731814,21.1058932 Z M38.3909282,24.5504231 C38.5232451,24.3782838 38.5216569,23.9442007 38.4504156,23.7804015 C38.4166512,23.7027698 38.2002248,23.6721451 38.1369083,23.5922751 C38.013769,23.4369424 37.9983608,23.3487636 37.8253608,23.4617676 C37.7267639,23.5261713 37.7439338,23.6271287 37.690587,23.7804015 C37.6022007,24.0343474 37.4925471,24.2865959 37.5097127,24.3948705 C37.5626875,24.7290171 37.8058215,24.6030387 37.9973716,24.6368513 C38.1889217,24.6706638 38.2651731,24.7140257 38.3909282,24.5504231 Z M10.3166754,33.7006718 C9.68153578,33.9172667 8.99085718,33.13605 8.56024438,33.2112155 C8.12963158,33.2863811 9.70152897,34.4998689 9.74284805,34.5535875 C9.89054038,34.7456013 10.0313457,34.7888136 10.3166754,34.8238741 C10.8488358,34.8892645 11.07771,33.4411443 10.3166754,33.7006718 Z M18.787735,38.6618391 C18.917439,38.1641919 18.542513,37.4459245 17.7114444,37.4459245 C16.2690603,37.4459245 16.4011936,38.8611981 16.6148019,39.0841746 C17.0223968,39.5096456 17.51487,39.6034358 18.0607708,39.3662275 C18.3068309,39.2593079 18.6923277,39.0278972 18.787735,38.6618391 Z M15.312079,32.4628086 C15.337374,32.3657571 15.3428739,31.8703387 15.1686219,31.52837 C15.0453492,31.286448 14.7269438,31.2114656 14.7269438,31.0101043 C14.7269438,30.5241088 14.8648888,30.2858213 14.5252052,30.3089642 C13.8153967,30.3573239 13.3058788,30.1058412 13.0055179,30.1058412 C11.5631339,30.1058412 11.7166741,30.8793239 11.9302824,31.1023005 C12.0635434,31.241406 12.1365143,31.6616608 12.4052167,31.9109066 C12.6432203,32.1316765 13.0585422,32.202664 13.3479095,32.3582872 C13.7310753,32.5643557 13.9825609,32.8220305 14.1845321,32.8220305 C14.7112352,32.8220305 15.226261,32.7920745 15.312079,32.4628086 Z M10.7198208,36.9215266 C10.4459969,36.6484168 10.0525361,36.181065 9.55648493,35.8758879 C9.13502664,35.6166014 8.60534389,35.5017881 8.37427465,35.4321199 C7.40688485,35.1404485 7.2258332,35.1178967 5.98344207,35.0709247 C5.16806083,35.040097 4.67773438,35.8397625 4.67773438,36.3011986 C4.67773438,36.7626346 4.89564825,37.1868496 5.98344206,37.5807732 C6.37758993,37.7235062 7.00730068,37.7610976 7.46565214,38.145911 C7.9240036,38.5307245 9.22254647,38.0266014 9.34940969,37.971476 C9.59546983,37.8645564 11.2262929,37.4266777 10.7198208,36.9215266 Z M17.9425498,52.1489806 C17.877354,52.2932398 17.5693361,52.5147802 17.2070527,52.606531 C17.0441201,52.6477948 16.90107,52.6654281 16.733837,52.7080773 C16.5757567,52.7483923 16.294993,52.7868776 16.3422091,52.3437856 C16.3894251,51.9006937 15.6890839,51.9958263 15.557084,52.1929081 C15.4248752,52.3903018 15.2947726,52.7678515 15.557084,52.8032283 C16.6315372,52.9481351 15.7925407,53.4002199 15.8394456,53.4931259 C15.9046884,53.6223542 16.1927821,53.9517692 16.4164703,53.4931259 C16.4615841,53.400626 16.8201863,53.4753892 17.248299,53.4222408 C17.4247661,53.4003332 17.5237441,53.2503807 17.7006203,53.2145338 C18.1702376,53.1193582 18.6868104,53.1565134 18.6958959,53.1534543 C19.8145759,52.7767966 19.3555395,52.2716301 19.1434137,52.095104 C18.927342,51.9152941 18.1508009,51.688182 17.9425498,52.1489806 Z M19.0464887,81.0647563 C15.6001392,83.7364719 20.0358665,80.9565896 20.1217242,80.9393792 C20.4448721,80.8746036 21.656337,79.8481887 21.6638211,79.8120827 C21.6921906,79.6752186 24.0562141,77.7692521 21.8892205,78.7907868 C21.7633928,78.8501027 19.7822967,80.4943354 19.0464887,81.0647563 Z M18.9276948,64.7335877 C18.9300222,64.7374482 18.6740668,65.2136956 18.9276948,65.359473 C18.9929872,65.397001 19.3574323,65.4046414 19.7157144,65.4557067 C20.0154317,65.4984248 20.2888469,65.6062084 20.5894826,65.4557067 C20.9192183,65.2906372 21.6283069,65.4612741 21.8518335,65.2753823 C21.9197578,65.2188943 22.3286067,65.22509 22.7261445,65.0373784 C22.871223,64.9688744 22.9024316,64.743842 23.0745063,64.666038 C23.7911661,64.3419987 24.1388272,64.666038 24.3437316,64.3495349 C24.754981,63.7143034 24.3757146,63.7201154 23.7560938,63.9071026 C23.4825205,63.9896608 23.4258333,64.2094395 23.1471696,64.3495349 C22.9656074,64.4408135 22.5510922,64.4798657 22.3976824,64.48833 C22.2541993,64.4962467 22.0427524,64.5337206 21.9755722,64.4221504 C21.8874478,64.2757972 21.9575945,63.9579883 21.8518335,63.8339407 C21.7391427,63.701765 21.3901714,63.7619809 21.3889595,63.761811 C20.6743871,63.6616307 20.1545885,64.0021828 19.616227,64.1483134 C19.4460218,64.1945132 18.8384838,64.5856085 18.9276948,64.7335877 Z M39.3126309,64.4388617 C39.3291589,64.4572524 39.7665126,64.7531043 40.0897047,64.6436859 C40.2447174,64.5912056 40.684174,64.3064552 40.6982953,64.2607561 C40.7405872,64.1238919 41.2261742,63.538332 40.8811677,63.4397467 C40.8528691,63.4316604 40.6927178,63.2562228 40.5490273,63.2465203 C40.4592486,63.2404582 40.3757627,63.3939618 40.3352887,63.4011318 C40.1326943,63.4370217 39.7688438,63.3436145 39.5874299,63.4397467 C39.3866818,63.5461243 39.3756143,63.842476 39.3126309,63.8772158 C39.2070928,63.9354276 39.1796393,64.2908825 39.3126309,64.4388617 Z M37.6265917,62.6261303 C37.6379252,62.6386353 37.937823,62.8398032 38.159439,62.7654029 C38.2657327,62.7297183 38.5670724,62.5360989 38.5767556,62.5050253 C38.6057555,62.4119629 38.9387273,62.0138046 38.702153,61.9467704 C38.6827483,61.941272 38.5138502,61.749534 38.4153202,61.7429367 C38.353758,61.7388146 37.9394215,61.8814042 37.8150242,61.9467704 C37.6773692,62.0191031 37.6697801,62.2206109 37.6265917,62.2442326 C37.5542233,62.2838144 37.5353981,62.5255101 37.6265917,62.6261303 Z M42.4735486,64.52652 C42.5440637,64.4952124 42.7993643,63.8560059 42.8643926,63.7950259 C43.2139602,63.4672204 43.4258679,62.8449844 43.268925,62.7818663 C43.1631975,62.8012866 42.4805779,63.212792 42.4125838,63.4119998 C42.3645747,63.5286794 42.0794331,64.2487504 42.1399308,64.4579117 C42.1474493,64.4883474 42.326529,64.5072805 42.4735486,64.52652 Z M52.1264267,82.670797 C51.9557993,83.1358862 51.6884476,83.5142294 51.6795928,83.9919008 C51.6719422,84.4046098 51.8369725,84.579064 51.8821454,84.5881857 C52.0227483,84.6165773 52.7593509,83.5275504 52.6954916,83.1095257 C52.6812673,83.016413 52.9488188,82.7015225 52.9235518,82.3977604 C52.8990011,82.1026094 52.5625661,81.8463228 52.5189892,81.8320761 C52.288098,81.7565902 52.2672359,82.2869849 52.1264267,82.670797 Z M74.8433922,65.1797253 C75.0302988,65.2134425 75.2613079,65.034781 75.283336,64.8205033 C75.3055539,64.6043802 75.1177927,64.3524172 75.0733906,64.3379007 C74.3209791,64.0919127 74.6146213,65.1384561 74.8433922,65.1797253 Z M72.5738102,65.4143088 C72.7875185,65.2274978 72.625579,65.0531729 72.5738102,64.9210175 C72.4956808,64.7215691 72.4630966,64.561794 72.2224938,64.5617955 C71.4457509,64.5618004 72.3601018,65.6011198 72.5738102,65.4143088 Z M56.1952682,73.438188 C55.8792949,74.0549136 55.7520372,74.7617733 56.0962532,74.8463576 C56.5958509,74.9691239 56.5013283,74.6192606 56.4495595,74.4871053 C56.4231747,74.41975 56.5072755,74.0037951 56.5345846,73.7630311 C56.5552326,73.5809925 56.8240952,73.375649 56.8715492,73.1921697 C56.9471816,72.8997393 56.6324995,72.6039594 56.5345846,72.60396 C56.2930071,72.6039615 56.3379009,73.1597936 56.1952682,73.438188 Z M53.561234,79.5202809 C53.561234,79.5707218 53.4204869,79.7490836 53.401863,80.0042425 C53.361665,80.5549799 53.4227127,81.4798385 53.401863,82.3635169 C53.3810723,83.2446965 53.1558866,84.0795837 53.2222249,84.6144753 C53.3391601,85.5573341 53.862325,84.5257704 53.862325,84.5257704 C53.862325,84.5257704 53.7580915,84.2653049 53.7646366,83.814855 C53.7678239,83.5955018 53.8510739,83.138635 53.862325,82.8624751 C53.9308007,81.1817298 53.9274364,78.7623553 53.862325,78.7303143 C53.5954509,78.5989872 53.561234,79.0915096 53.561234,79.5202809 Z M72.4422022,63.6745327 C72.4415737,63.7889832 72.5786343,63.6912902 72.7463025,63.9819039 C72.9139707,64.2725176 73.1602857,64.3837299 73.2853675,64.446558 C73.6329452,64.6211448 73.9860138,64.5524931 74.0009047,64.5099447 C74.0487324,64.3732844 73.7906137,64.2572389 73.7511361,64.1564603 C73.6730067,63.9570119 73.3719905,63.5575632 73.1313877,63.5575647 C72.9081504,63.5575661 72.4428498,63.5566172 72.4422022,63.6745327 Z M87.5640917,56.2745539 C87.6830943,56.59051 87.9076141,56.8295523 88.2544078,56.6743185 C88.6012016,56.5190847 87.9780177,55.938276 87.9231267,55.8595345 C87.6843932,55.51707 87.3502476,55.7067901 87.5640917,56.2745539 Z M87.2425794,57.9429492 C86.9271273,57.9047744 87.0015846,58.1966134 87.0713835,58.3324377 C87.141441,58.4687652 87.4291673,58.4520924 87.7381519,58.4520924 C87.9569999,58.4520924 87.9463086,58.1301443 87.6840464,57.9811239 C87.5760287,57.919747 87.5580314,57.9811239 87.2425794,57.9429492 Z M86.0393088,58.2285842 C85.8628306,58.3297805 86.1936458,58.427161 86.2641579,58.6108477 C86.33467,58.7945343 86.5597708,58.8309709 86.8535897,58.6967294 C87.1474086,58.5624879 86.9565092,58.2367201 86.7391375,58.1410631 C86.5217658,58.0454062 86.215787,58.1273879 86.0393088,58.2285842 Z M83.4926874,57.0630329 C83.3352342,57.0521473 83.123513,56.9454792 83.1712504,57.0630329 C83.2617931,57.2859946 83.3214369,57.3084653 83.6068682,57.3947812 C83.7371339,57.4341743 83.9896424,57.5577087 84.0153353,57.6259243 C84.0611165,57.7474752 84.1649813,57.7963619 84.39133,57.8672069 C84.5384543,57.9132554 84.6655277,57.9918948 84.810772,58.0313658 C85.0229179,58.0890176 85.0407919,58.2083355 85.3616408,58.2079562 C85.6224797,58.2076478 85.812676,58.2379215 85.8038315,57.8988547 C85.7949869,57.559788 85.3154655,57.5011573 85.2332138,57.440682 C85.0768522,57.3257176 84.6589688,57.3798569 84.5810233,57.2859946 C84.3241994,56.9767261 83.8406502,57.0870895 83.4926874,57.0630329 Z M85.3349575,38.7671194 C85.0985909,39.1494898 85.0749922,39.8087369 85.0319427,39.9092043 C84.9804561,40.0293617 85.1326762,40.8051797 85.4949072,41.1528658 C85.5656872,41.2208038 85.7229091,41.1644267 85.8161632,41.204747 C86.2001561,41.370774 86.2942936,41.4562297 86.5408663,41.4562297 C86.7060018,41.4562297 86.7987379,41.3316901 87.0742328,41.2522871 C87.3389058,41.1760032 87.6715835,41.1487255 87.862162,40.9610055 C88.2231414,40.6054404 88.3015207,39.9806474 87.9124532,39.5229336 C87.591842,39.1457543 87.3220254,38.8789649 87.0095594,38.7247705 C86.5342794,38.4902312 86.0590799,38.483063 85.9345953,38.483063 C85.8549185,38.483063 85.4836602,38.526563 85.3349575,38.7671194 Z M91.4200088,39.6491911 C91.1836422,40.0315614 90.6609641,39.9568051 90.6609641,40.8460715 C90.6609641,41.7353379 91.0145417,41.8103821 91.3767726,42.1580681 C91.4208149,42.200342 91.6992435,42.2697188 91.8969632,42.3952221 C92.0169972,42.471414 92.0202228,42.6240334 92.1735962,42.6435172 C92.579606,42.6950948 92.6672305,42.6435172 92.9575455,42.6435172 C93.3340075,42.6435172 93.4110631,42.3852014 93.5417461,42.3151082 C93.6988523,42.2308426 93.9850342,42.2605459 94.0890723,42.1580681 C94.4500518,41.802503 94.9167425,40.9066465 94.5276751,40.4489328 C94.358891,40.2503688 94.2427448,39.8629499 94.0370322,39.6491911 C93.8519864,39.4569074 93.5767412,39.4315666 93.4287713,39.358547 C92.9534912,39.1240077 92.3498496,39.2646205 92.225365,39.2646205 C92.1456882,39.2646205 91.5687115,39.4086346 91.4200088,39.6491911 Z M59.580472,20.6955487 C59.3974805,20.8806129 59.2875755,21.1645941 59.262834,21.4204287 C59.2210451,21.8525394 59.52207,22.2518335 59.714884,22.2863805 C59.9076979,22.3209274 60.0178989,22.2863802 60.102532,22.4880159 C60.1871651,22.6896516 60.8625415,22.2437583 60.9675264,22.1131292 C61.0725113,21.9825 61.0277675,21.5708508 61.0621092,21.4391594 C61.062682,21.436963 61.3209055,21.3718996 61.5457269,21.0745942 C62.0884427,20.3569032 62.9353231,18.9181411 63.1058766,18.3226438 C63.1103324,18.3070862 63.3739604,15.8759089 62.2597868,15.8759089 C61.9763397,15.8759089 62.0387517,15.558368 61.5807017,15.5911846 C61.1226518,15.6240012 59.740693,17.2369634 59.5349746,18.1975096 C59.3292561,19.1580558 59.3254873,19.2191659 59.4302309,19.5188867 C59.5349745,19.8186075 59.9300698,20.0565811 59.9300698,20.3967688 C59.9300698,20.5355456 59.7065574,20.5680352 59.580472,20.6955487 Z M48.6938634,10.8930662 C48.6938634,10.8930662 50.2133398,11.2990086 51.0956106,11.7143619 C51.9110673,13.795439 51.7269066,17.5007514 52.3510268,17.6418333 C52.6847034,17.7172607 52.428238,16.0675171 52.4231474,14.6907465 C52.4187163,13.4923582 52.6743266,12.5594906 52.7919512,12.4059697 C52.9633542,12.1822583 52.9609647,13.1077827 53.094363,14.2794005 C53.1576791,14.8354965 53.4176968,15.3890145 53.4328352,16.009179 C53.4593951,17.0972476 53.4385729,18.0361688 53.2969157,18.7352952 C53.1877245,19.2741906 53.094363,19.642078 53.0062626,20.0510562 C52.889334,20.5938595 53.5622421,19.6796 53.8348047,19.9451687 C54.1492166,20.261131 53.9766338,20.8557158 53.5622421,20.8557158 C52.975147,20.7638536 53.2969157,20.2718169 52.9133983,20.4328946 C52.5261423,21.4321467 52.1874097,21.5608012 51.6186052,22.01981 C51.0498007,22.4788187 50.7310815,22.0352339 50.4711889,22.5970302 C50.3675656,22.8210272 50.6641526,23.0961837 50.7373596,23.332353 C50.8477595,23.6885088 50.8153294,23.9417523 50.4711889,24.1199517 C50.1270484,24.298151 50.3079696,23.057142 50.1001386,22.7406825 C49.8923077,22.4242231 49.8181813,22.3190382 49.5868076,22.7406825 C49.3554338,23.1623269 49.7757491,23.7889295 48.6938634,24.1199517 C48.3272316,24.2321292 47.9461273,23.9655222 47.5909496,23.6804337 C47.2633525,23.4174832 47.1060376,23.140429 47.0656032,22.7406825 C47.0205138,22.294916 47.2338413,21.758275 47.9553513,21.2871586 C48.0387798,20.7791289 47.2646583,20.6372622 47.2646583,20.2886958 C47.2646583,19.9401293 47.787653,19.6935646 47.5014622,18.6620726 C47.2152714,17.6305806 46.2777042,15.4187228 46.2037746,14.4055669 C46.129845,13.3924109 46.4322577,12.7950609 47.0656032,11.9016685 C47.2646584,11.8197029 48.6938634,10.8930662 48.6938634,10.8930662 Z M88.2637847,30.3631223 C88.233517,30.4699644 88.6959484,31.2587018 89.0871862,30.990979 C89.4801558,30.722071 89.5719045,30.3554873 89.7128893,30.1783505 C89.8538742,30.0012137 89.5005075,29.5372274 88.9969601,29.5768138 C88.4934127,29.6164002 88.3192772,30.1672396 88.2637847,30.3631223 Z M80.4339256,40.1258516 C80.4036578,40.2326937 80.8304813,40.9004409 81.221719,40.632718 C81.6146887,40.36381 81.6968041,40.0544353 81.6357187,39.9526005 C81.5746333,39.8507658 81.3772215,39.5066164 81.0014227,39.5459447 C80.625624,39.5852731 80.489418,39.9299689 80.4339256,40.1258516 Z M78.056495,31.0897628 C77.9629419,31.3109024 78.1138454,31.5136925 78.1931833,31.5938211 C78.2932159,31.6948505 78.5233095,31.8546998 78.7788312,31.5938211 C79.0343528,31.3329424 78.9503831,31.0553679 78.7270624,30.8886434 C78.4978867,30.7175477 78.3700395,30.7657801 78.2984697,30.851516 C78.2868386,30.8654494 78.1174848,30.9455959 78.056495,31.0897628 Z M84.2344708,26.6690526 C84.1627338,26.7359239 84.059028,26.7500235 84.0426518,26.8152853 C84.0291064,26.8692661 84.1651757,26.9142641 84.2344708,27.0366988 C84.2968997,27.1470019 84.2153713,27.3372418 84.2344708,27.3565317 C84.3345034,27.4575611 84.7061489,27.400611 84.896988,27.3565317 C85.087827,27.3124524 85.091364,26.835777 84.8680433,26.6690525 C84.6388676,26.4979569 84.6414153,26.4521927 84.47135,26.4521927 C84.3012848,26.4521927 84.2851063,26.6218515 84.2344708,26.6690526 Z M75.5236124,20.5227942 C75.544134,20.6481934 75.4920713,20.7846392 75.7821365,20.7616477 C76.0722017,20.7386563 76.0849618,20.6574731 76.2375234,20.5227942 C76.3356473,20.3068224 76.2115986,20.1916663 76.0729234,20.0860041 C75.9342483,19.9803419 75.7024542,20.098107 75.6375468,20.1642295 C75.6108181,20.1914586 75.5030907,20.397395 75.5236124,20.5227942 Z M79.7851421,22.145612 C79.8056638,22.4017618 80.1211665,22.5002168 80.2737281,22.2251118 C80.299414,22.1096292 80.3098759,22.0082579 80.3088365,21.9176519 C80.3059052,21.66213 80.2115023,21.4922265 80.1091282,21.3328918 C79.970453,21.1170584 79.7386589,21.3576141 79.6737516,21.4926808 C79.6470228,21.5483011 79.7646204,21.8894623 79.7851421,22.145612 Z M75.9917577,25.40578 C76.0143858,25.5683755 76.2184914,25.6373481 76.5383304,25.6075369 C76.8581694,25.5777257 76.8722392,25.4724616 77.0404605,25.2978339 C77.1486564,25.0177998 77.0509379,24.7841465 76.8980284,24.6471425 C76.745119,24.5101385 76.3248399,24.6457458 76.2532701,24.7314817 C76.2237977,24.7667877 75.9691295,25.2431845 75.9917577,25.40578 Z M64.3493985,19.270713 C64.4124738,19.5204653 64.9606896,19.1004825 65.0236292,18.8171698 C65.0865689,18.5338571 64.4801994,18.0739025 64.4086296,18.1596385 C64.3997266,18.1703037 64.2863232,19.0209606 64.3493985,19.270713 Z M65.4230511,19.1170274 C65.3532254,19.2118676 65.2093723,19.2460146 65.2074733,19.355001 C65.2052188,19.4843935 65.3268952,19.6568665 65.3686893,19.7049639 C65.4901214,19.8447103 65.7420905,19.8988408 65.9393673,19.8650094 C66.1366441,19.831178 66.2591336,19.8635232 66.3327439,19.5396362 C66.4063542,19.2157491 66.2701962,18.9467362 66.1172868,18.8097322 C65.9643773,18.6727281 65.5616912,18.7776534 65.4901214,18.8633893 C65.4812184,18.8740545 65.4891548,19.0272425 65.4230511,19.1170274 Z M69.3059674,20.3480102 C69.3285955,20.5106057 69.5327011,20.5795783 69.8525401,20.5497671 C70.1723791,20.5199559 70.0470779,20.5226379 70.2152992,20.3480101 C70.3234951,20.0679761 70.2130529,19.990857 70.0601435,19.8538529 C69.907234,19.7168489 69.5017439,19.768117 69.4301741,19.8538529 C69.4007017,19.8891589 69.2833392,20.1854147 69.3059674,20.3480102 Z M73.2400962,27.0445159 C73.2627243,27.2071114 73.5152367,27.6399506 73.8350757,27.6101394 C74.1549147,27.5803282 74.0317989,27.4506054 74.2000201,27.2759777 C74.308216,26.9959436 74.1190503,26.8888267 73.9661409,26.7518227 C73.8132314,26.6148186 73.4843995,26.6238896 73.4128297,26.7096255 C73.3833574,26.7449315 73.217468,26.8819204 73.2400962,27.0445159 Z M69.9056662,24.9306525 C69.9282943,25.093248 70.1772427,25.0721715 70.185058,25.1304361 C70.2135353,25.3427423 70.1808067,25.5260873 70.5006457,25.4962761 C70.8204847,25.4664649 70.6973689,25.3367421 70.8655902,25.1621143 C70.9737861,24.8820803 70.7846204,24.7749634 70.6317109,24.6379593 C70.4788015,24.5009553 70.1499696,24.5100263 70.0783998,24.5957622 C70.0489274,24.6310681 69.8830381,24.768057 69.9056662,24.9306525 Z M58.4692516,20.5548716 C58.4369517,20.6141268 58.4020579,20.6296967 58.3825532,20.6855157 C58.3462216,20.7894906 58.4025582,21.059871 58.4924074,21.0944483 C58.5822566,21.1290257 58.8165579,21.2457053 58.9959548,21.0594763 C59.1041507,20.7794423 59.0168342,20.6256656 58.9959548,20.5044931 C58.9750754,20.3833206 58.5934495,20.3268494 58.5218797,20.4125853 C58.4924074,20.4478913 58.4971173,20.5037512 58.4692516,20.5548716 Z" fill="#000000" sketch:type="MSShapeGroup"></path></g></svg>