<svg xmlns="http://www.w3.org/2000/svg" xmlns:xlink="http://www.w3.org/1999/xlink" xml:space="preserve" version="1.1" style="shape-rendering:geometricPrecision;text-rendering:geometricPrecision;image-rendering:optimizeQuality;" viewBox="0 0 617 278" x="0px" y="0px" fill-rule="evenodd" clip-rule="evenodd"><defs><style type="text/css">
   
    .fil0 {fill:black}
   
  </style></defs><g><path class="fil0" d="M78 0c89,0 178,0 267,0 32,25 59,54 83,86 58,10 116,20 174,30 10,2 14,8 15,27l0 71 -29 1c-1,-38 -32,-69 -70,-69 -44,0 -77,40 -69,83 -86,0 -171,-1 -256,-1 7,-42 -26,-82 -70,-82 -33,0 -61,24 -68,55l-55 0c0,-89 -2,-139 78,-201zm260 23c-32,0 -63,0 -95,0 0,22 0,43 0,65 46,0 104,0 150,0 -14,-24 -33,-45 -55,-65zm-229 0c37,0 75,0 112,0 0,22 0,43 0,65 -46,0 -92,0 -138,0 2,-23 10,-45 26,-65z"></path><path class="fil0" d="M123 159c33,0 59,27 59,60 0,33 -26,59 -59,59 -33,0 -60,-26 -60,-59 0,-33 27,-60 60,-60zm0 15c24,0 44,20 44,45 0,24 -20,45 -44,45 -25,0 -45,-21 -45,-45 0,-25 20,-45 45,-45z"></path><path class="fil0" d="M517 159c33,0 60,27 60,60 0,33 -27,59 -60,59 -33,0 -60,-26 -60,-59 0,-33 27,-60 60,-60zm0 15c25,0 45,20 45,45 0,24 -20,45 -45,45 -25,0 -45,-21 -45,-45 0,-25 20,-45 45,-45z"></path><path class="fil0" d="M123 184c19,0 34,16 34,35 0,19 -15,34 -34,34 -19,0 -35,-15 -35,-34 0,-19 16,-35 35,-35z"></path><path class="fil0" d="M519 184c19,0 34,16 34,35 0,19 -15,34 -34,34 -19,0 -35,-15 -35,-34 0,-19 16,-35 35,-35z"></path></g></svg>