<?xml version="1.0" encoding="UTF-8"?>
<svg width="57px" height="69px" viewBox="0 0 57 69" version="1.1" xmlns="http://www.w3.org/2000/svg" xmlns:xlink="http://www.w3.org/1999/xlink">
    <!-- Generator: Sketch 42 (36781) - http://www.bohemiancoding.com/sketch -->
    <title>Group</title>
    <desc>Created with Sketch.</desc>
    <defs></defs>
    <g id="Page-1" stroke="none" stroke-width="1" fill="none" fill-rule="evenodd">
        <g id="Group" transform="translate(-10.000000, -9.000000)">
            <polygon id="Path-2" fill="#FFFFFF" transform="translate(40.193020, 39.261385) rotate(-28.000000) translate(-40.193020, -39.261385) " points="10.8588723 34.6323037 10.110621 45.3744334 12.1673476 50.8927861 10.6014198 57.2471359 11.1539301 64.7142201 12.9869527 65.7073886 21.821331 65.6953356 19.1441152 60.1032185 20.4217349 58.1916102 28.3444231 56.8272088 37.1898902 62.3479721 39.275544 64.9292459 45.1511481 65.1370399 47.0159907 52.6626509 53.2107586 45.792432 53.2131692 36.7087973 57.0807408 29.3805638 65.4816927 30.3356447 70.1245143 27.5735757 70.2754181 24.145698 63.7267736 23.0136788 62.6082538 19.2343352 53.2102764 12.8153812 43.8937775 18.2011507 41.3505912 34.0373669 19.7424269 42.4624248 16.8728449 45.3556307 13.5611584 43.0665219"></polygon>
            <path d="M70.3272353,23.1095089 L64.2712353,22.4645089 L63.6112353,19.3695089 C63.5722353,19.1875089 63.4652353,19.0295089 63.3102353,18.9275089 L53.1472353,12.1525089 C53.1172353,12.1315089 53.0822353,12.1285089 53.0492353,12.1125089 C53.0272353,12.1015089 53.0102353,12.0825089 52.9872353,12.0735089 C52.9712353,12.0675089 52.9552353,12.0725089 52.9392353,12.0685089 C52.8762353,12.0505089 52.8132353,12.0475089 52.7492353,12.0475089 C52.7122353,12.0475089 52.6782353,12.0425089 52.6422353,12.0485089 C52.5552353,12.0625089 52.4732353,12.0935089 52.3962353,12.1385089 C52.3872353,12.1435089 52.3752353,12.1435089 52.3672353,12.1495089 L43.2652353,18.0905089 C43.2592353,18.0945089 43.2582353,18.1015089 43.2522353,18.1045089 C43.1602353,18.1675089 43.0862353,18.2525089 43.0322353,18.3535089 C43.0182353,18.3795089 43.0142353,18.4065089 43.0042353,18.4325089 C42.9852353,18.4815089 42.9592353,18.5265089 42.9512353,18.5805089 L40.7382353,33.5305089 C40.7112353,33.5375089 40.6832353,33.5345089 40.6572353,33.5445089 L18.5572353,41.9195089 C18.5452353,41.9235089 18.5382353,41.9345089 18.5282353,41.9395089 C18.4662353,41.9665089 18.4112353,42.0085089 18.3572353,42.0535089 C18.3332353,42.0745089 18.3042353,42.0885089 18.2842353,42.1125089 C18.2782353,42.1185089 18.2712353,42.1205089 18.2662353,42.1265089 L16.2312353,44.5395089 L14.2062353,42.7265089 L11.0222353,32.5165089 C10.9182353,32.1815089 10.5782353,31.9705089 10.2392353,32.0275089 C9.89223533,32.0805089 9.63623533,32.3775089 9.63623533,32.7275089 L9.63623533,46.5815089 C9.63623533,46.6675089 9.65223533,46.7525089 9.68223533,46.8325089 L11.1872353,50.8135089 L9.64923533,58.7825089 C9.64423533,58.8095089 9.65523533,58.8365089 9.65323533,58.8635089 C9.64923533,58.9105089 9.63623533,58.9565089 9.64223533,59.0055089 L10.5212353,66.0315089 C10.5242353,66.0525089 10.5402353,66.0685089 10.5442353,66.0895089 C10.5632353,66.1745089 10.5942353,66.2515089 10.6402353,66.3225089 C10.6572353,66.3475089 10.6702353,66.3725089 10.6902353,66.3955089 C10.7622353,66.4815089 10.8482353,66.5535089 10.9532353,66.5975089 C10.9542353,66.5975089 10.9552353,66.5995089 10.9562353,66.5995089 C11.0432353,66.6345089 11.1342353,66.6525089 11.2252353,66.6525089 L21.7822353,66.6525089 C22.0242353,66.6525089 22.2502353,66.5285089 22.3802353,66.3245089 C22.5102353,66.1195089 22.5262353,65.8635089 22.4242353,65.6435089 C21.3962353,63.4435089 20.3002353,61.0205089 19.8832353,59.9935089 L22.0652353,58.2665089 L28.4752353,57.5195089 L36.5862353,63.3315089 L39.0372353,66.2715089 C39.1682353,66.4285089 39.3602353,66.5215089 39.5652353,66.5255089 L45.1802353,66.6515089 C45.1852353,66.6525089 45.1912353,66.6525089 45.1962353,66.6525089 C45.5492353,66.6525089 45.8482353,66.3925089 45.8982353,66.0425089 L47.7792353,52.7195089 L53.6932353,46.8035089 C53.7592353,46.7385089 53.8122353,46.6585089 53.8482353,46.5715089 C53.8772353,46.5005089 53.8882353,46.4245089 53.8932353,46.3475089 C53.8942353,46.3305089 53.9032353,46.3175089 53.9032353,46.3005089 C53.9032353,45.9055089 54.1212353,39.8535089 54.2122353,37.3775089 L57.0882353,31.0335089 L65.2712353,31.3945089 C65.2822353,31.3945089 65.2922353,31.3955089 65.3022353,31.3955089 L65.3032353,31.3955089 L65.3032353,31.3955089 C65.3062353,31.3955089 65.3082353,31.3935089 65.3112353,31.3935089 C65.4182353,31.3925089 65.5222353,31.3645089 65.6172353,31.3175089 C65.6222353,31.3145089 65.6282353,31.3165089 65.6332353,31.3135089 L70.4012353,28.8035089 C70.6252353,28.6865089 70.7682353,28.4585089 70.7792353,28.2065089 L70.9632353,23.8465089 C70.9762353,23.4705089 70.6982353,23.1495089 70.3272353,23.1095089 Z M52.3722353,13.8375089 L57.0142353,27.7595089 L53.1682353,36.2415089 L45.5222353,32.3635089 L44.3942353,19.0455089 L52.3722353,13.8375089 Z M38.2102353,60.2845089 L43.4612353,24.8165089 L44.1442353,32.8765089 C44.1652353,33.1215089 44.3112353,33.3375089 44.5302353,33.4485089 L52.7842353,37.6355089 C52.7242353,39.2555089 52.5292353,44.6475089 52.4922353,45.9975089 L38.2102353,60.2845089 Z M40.5032353,35.1185089 L36.5852353,61.5845089 L29.1772353,56.2765089 L19.9082353,42.9225089 L40.5032353,35.1185089 Z M11.2252353,58.0995089 L12.5832353,51.0645089 L18.7542353,43.7465089 L27.4072353,56.2155089 L11.2252353,58.0995089 Z M11.0552353,37.3775089 L12.9112353,43.3325089 C12.9492353,43.4545089 13.0192353,43.5635089 13.1152353,43.6495089 L15.3172353,45.6225089 L12.1582353,49.3685089 L11.0542353,46.4485089 L11.0542353,37.3775089 L11.0552353,37.3775089 Z M20.6702353,65.2325089 L13.2622353,65.2325089 L18.7302353,60.9035089 C19.0582353,61.6945089 19.6392353,63.0095089 20.6702353,65.2325089 Z M18.9082353,58.9545089 C18.6532353,58.9935089 18.4442353,59.1575089 18.3552353,59.3925089 L11.7712353,64.6045089 L11.1372353,59.5365089 L19.3862353,58.5765089 L18.9082353,58.9545089 Z M44.5822353,65.2185089 L39.9182353,65.1145089 L37.8572353,62.6425089 L46.1112353,54.3855089 L44.5822353,65.2185089 Z M57.7172353,29.6405089 L58.4192353,28.0915089 C58.4922353,27.9285089 58.5022353,27.7435089 58.4452353,27.5735089 L54.0792353,14.4765089 L62.2852353,19.9465089 L64.4162353,29.9355089 L57.7172353,29.6405089 Z M69.3782353,27.7375089 L65.7992353,29.6225089 L64.5832353,23.9245089 L69.5162353,24.4495089 L69.3782353,27.7375089 Z" id="Shape" fill="#000000" fill-rule="nonzero" transform="translate(40.299954, 39.349032) rotate(-28.000000) translate(-40.299954, -39.349032) "></path>
            <polygon id="Path-3" fill="#000000" transform="translate(42.959753, 22.496486) rotate(-28.000000) translate(-42.959753, -22.496486) " points="36.1011054 17.2172356 37.1236833 29.3716592 45.4180865 33.3727939 49.8184015 25.4940054 48.2949003 19.7947871 45.5043861 11.6201777"></polygon>
            <polygon id="Path-4" fill="#000000" transform="translate(29.959754, 46.809386) rotate(-28.000000) translate(-29.959754, -46.809386) " points="23.4361798 47.4033589 32.5395814 50.557392 36.4833281 44.693841 35.9539597 43.0613805 29.5668256 45.1075005"></polygon>
            <polygon id="Path-5" stroke="#000000" fill="#FFFFFF" points="55.3279875 39.5166138 65.5653369 33.7007927 63.819096 39.0836695 54.2200743 50.6849381 52.2019174 50.1507484"></polygon>
            <polygon id="Path-6" stroke="#000000" stroke-width="1.5" fill="#FFFFFF" points="36.3787624 58.9354683 27.5409653 75.9196137 45 75.5557794"></polygon>
        </g>
    </g>
</svg>