<?xml version="1.0" encoding="UTF-8"?>
<svg width="62px" height="55px" viewBox="0 0 62 55" version="1.1" xmlns="http://www.w3.org/2000/svg" xmlns:xlink="http://www.w3.org/1999/xlink">
    <!-- Generator: Sketch 42 (36781) - http://www.bohemiancoding.com/sketch -->
    <title>Group</title>
    <desc>Created with Sketch.</desc>
    <defs></defs>
    <g id="Page-1" stroke="none" stroke-width="1" fill="none" fill-rule="evenodd">
        <g id="Group">
            <polygon id="Path-2" fill="#FFFFFF" points="1.94830184 22.7508514 1.20005063 33.492981 3.25677722 39.0113337 1.69084943 45.3656836 2.24335967 52.8327678 4.07638228 53.8259363 12.9107606 53.8138833 10.2335448 48.2217661 11.5111644 46.3101579 19.4338527 44.9457565 28.2793198 50.4665198 30.3649736 53.0477936 36.2405777 53.2555876 38.1054202 40.7811985 44.3001882 33.9109796 44.3025988 24.8273449 48.1701704 17.4991114 56.5711223 18.4541924 61.2139439 15.6921233 61.3648477 12.2642457 54.8162032 11.1322265 53.6976834 7.35288287 44.299706 0.933928868 34.9832071 6.31969837 32.4400208 22.1559145 10.8318565 30.5809725 7.96227452 33.4741783 4.65058795 31.1850696"></polygon>
            <path d="M61.363,11.268 L55.307,10.623 L54.647,7.528 C54.608,7.346 54.501,7.188 54.346,7.086 L44.183,0.311 C44.153,0.29 44.118,0.287 44.085,0.271 C44.063,0.26 44.046,0.241 44.023,0.232 C44.007,0.226 43.991,0.231 43.975,0.227 C43.912,0.209 43.849,0.206 43.785,0.206 C43.748,0.206 43.714,0.201 43.678,0.207 C43.591,0.221 43.509,0.252 43.432,0.297 C43.423,0.302 43.411,0.302 43.403,0.308 L34.301,6.249 C34.295,6.253 34.294,6.26 34.288,6.263 C34.196,6.326 34.122,6.411 34.068,6.512 C34.054,6.538 34.05,6.565 34.04,6.591 C34.021,6.64 33.995,6.685 33.987,6.739 L31.774,21.689 C31.747,21.696 31.719,21.693 31.693,21.703 L9.593,30.078 C9.581,30.082 9.574,30.093 9.564,30.098 C9.502,30.125 9.447,30.167 9.393,30.212 C9.369,30.233 9.34,30.247 9.32,30.271 C9.314,30.277 9.307,30.279 9.302,30.285 L7.267,32.698 L5.242,30.885 L2.058,20.675 C1.954,20.34 1.614,20.129 1.275,20.186 C0.928,20.239 0.672,20.536 0.672,20.886 L0.672,34.74 C0.672,34.826 0.688,34.911 0.718,34.991 L2.223,38.972 L0.685,46.941 C0.68,46.968 0.691,46.995 0.689,47.022 C0.685,47.069 0.672,47.115 0.678,47.164 L1.557,54.19 C1.56,54.211 1.576,54.227 1.58,54.248 C1.599,54.333 1.63,54.41 1.676,54.481 C1.693,54.506 1.706,54.531 1.726,54.554 C1.798,54.64 1.884,54.712 1.989,54.756 C1.99,54.756 1.991,54.758 1.992,54.758 C2.079,54.793 2.17,54.811 2.261,54.811 L12.818,54.811 C13.06,54.811 13.286,54.687 13.416,54.483 C13.546,54.278 13.562,54.022 13.46,53.802 C12.432,51.602 11.336,49.179 10.919,48.152 L13.101,46.425 L19.511,45.678 L27.622,51.49 L30.073,54.43 C30.204,54.587 30.396,54.68 30.601,54.684 L36.216,54.81 C36.221,54.811 36.227,54.811 36.232,54.811 C36.585,54.811 36.884,54.551 36.934,54.201 L38.815,40.878 L44.729,34.962 C44.795,34.897 44.848,34.817 44.884,34.73 C44.913,34.659 44.924,34.583 44.929,34.506 C44.93,34.489 44.939,34.476 44.939,34.459 C44.939,34.064 45.157,28.012 45.248,25.536 L48.124,19.192 L56.307,19.553 C56.318,19.553 56.328,19.554 56.338,19.554 L56.339,19.554 L56.339,19.554 C56.342,19.554 56.344,19.552 56.347,19.552 C56.454,19.551 56.558,19.523 56.653,19.476 C56.658,19.473 56.664,19.475 56.669,19.472 L61.437,16.962 C61.661,16.845 61.804,16.617 61.815,16.365 L61.999,12.005 C62.012,11.629 61.734,11.308 61.363,11.268 Z M43.408,1.996 L48.05,15.918 L44.204,24.4 L36.558,20.522 L35.43,7.204 L43.408,1.996 Z M29.246,48.443 L34.497,12.975 L35.18,21.035 C35.201,21.28 35.347,21.496 35.566,21.607 L43.82,25.794 C43.76,27.414 43.565,32.806 43.528,34.156 L29.246,48.443 Z M31.539,23.277 L27.621,49.743 L20.213,44.435 L10.944,31.081 L31.539,23.277 Z M2.261,46.258 L3.619,39.223 L9.79,31.905 L18.443,44.374 L2.261,46.258 Z M2.091,25.536 L3.947,31.491 C3.985,31.613 4.055,31.722 4.151,31.808 L6.353,33.781 L3.194,37.527 L2.09,34.607 L2.09,25.536 L2.091,25.536 Z M11.706,53.391 L4.298,53.391 L9.766,49.062 C10.094,49.853 10.675,51.168 11.706,53.391 Z M9.944,47.113 C9.689,47.152 9.48,47.316 9.391,47.551 L2.807,52.763 L2.173,47.695 L10.422,46.735 L9.944,47.113 Z M35.618,53.377 L30.954,53.273 L28.893,50.801 L37.147,42.544 L35.618,53.377 Z M48.753,17.799 L49.455,16.25 C49.528,16.087 49.538,15.902 49.481,15.732 L45.115,2.635 L53.321,8.105 L55.452,18.094 L48.753,17.799 Z M60.414,15.896 L56.835,17.781 L55.619,12.083 L60.552,12.608 L60.414,15.896 Z" id="Shape" fill="#000000" fill-rule="nonzero"></path>
            <polygon id="Path-3" fill="#000000" points="34.7373256 8.59705791 35.7599034 20.7514816 44.0543066 24.7526162 48.4546216 16.8738278 46.9311204 11.1746095 44.1406062 3"></polygon>
            <polygon id="Path-4" fill="#000000" points="12.1798658 29.8341676 21.2832674 32.9882008 25.2270141 27.1246497 24.6976457 25.4921893 18.3105116 27.5383092"></polygon>
        </g>
    </g>
</svg>