<svg xmlns:dc="http://purl.org/dc/elements/1.1/" xmlns:cc="http://creativecommons.org/ns#" xmlns:rdf="http://www.w3.org/1999/02/22-rdf-syntax-ns#" xmlns:svg="http://www.w3.org/2000/svg" xmlns="http://www.w3.org/2000/svg" xmlns:sodipodi="http://sodipodi.sourceforge.net/DTD/sodipodi-0.dtd" xmlns:inkscape="http://www.inkscape.org/namespaces/inkscape" viewBox="0 0 8.4666665 8.4666669" version="1.1" x="0px" y="0px"><g transform="translate(0,-288.53332)"><path style="color:#000000;font-style:normal;font-variant:normal;font-weight:normal;font-stretch:normal;font-size:medium;line-height:normal;font-family:sans-serif;text-indent:0;text-align:start;text-decoration:none;text-decoration-line:none;text-decoration-style:solid;text-decoration-color:#000000;letter-spacing:normal;word-spacing:normal;text-transform:none;direction:ltr;block-progression:tb;writing-mode:lr-tb;baseline-shift:baseline;text-anchor:start;white-space:normal;clip-rule:nonzero;display:inline;overflow:visible;visibility:visible;opacity:1;isolation:auto;mix-blend-mode:normal;color-interpolation:sRGB;color-interpolation-filters:linearRGB;solid-color:#000000;solid-opacity:1;fill:#000000;fill-opacity:1;fill-rule:nonzero;stroke:none;stroke-width:0.26458335;stroke-linecap:round;stroke-linejoin:round;stroke-miterlimit:4;stroke-dasharray:none;stroke-dashoffset:0;stroke-opacity:1;color-rendering:auto;image-rendering:auto;shape-rendering:auto;text-rendering:auto;enable-background:accumulate" d="m 0.78125,289.19531 a 0.1323049,0.1323049 0 0 0 -0.11914062,0.13086 l 0,6.88086 a 0.1323049,0.1323049 0 0 0 0.13085937,0.13086 l 6.88085935,0 a 0.1323049,0.1323049 0 0 0 0.1308594,-0.13086 l 0,-6.88086 a 0.1323049,0.1323049 0 0 0 -0.1308594,-0.13086 l -6.88085935,0 a 0.1323049,0.1323049 0 0 0 -0.0117188,0 z m 0.14453125,0.26367 6.61523435,0 0,6.61524 -6.61523435,0 0,-6.61524 z"></path><path style="color:#000000;font-style:normal;font-variant:normal;font-weight:normal;font-stretch:normal;font-size:medium;line-height:normal;font-family:sans-serif;text-indent:0;text-align:start;text-decoration:none;text-decoration-line:none;text-decoration-style:solid;text-decoration-color:#000000;letter-spacing:normal;word-spacing:normal;text-transform:none;direction:ltr;block-progression:tb;writing-mode:lr-tb;baseline-shift:baseline;text-anchor:start;white-space:normal;clip-rule:nonzero;display:inline;overflow:visible;visibility:visible;opacity:1;isolation:auto;mix-blend-mode:normal;color-interpolation:sRGB;color-interpolation-filters:linearRGB;solid-color:#000000;solid-opacity:1;fill:#000000;fill-opacity:1;fill-rule:evenodd;stroke:none;stroke-width:0.26458335px;stroke-linecap:round;stroke-linejoin:round;stroke-miterlimit:4;stroke-dasharray:none;stroke-dashoffset:0;stroke-opacity:1;color-rendering:auto;image-rendering:auto;shape-rendering:auto;text-rendering:auto;enable-background:accumulate" d="m 4.2285156,289.85547 a 0.1323049,0.1323049 0 0 0 -0.1210937,0.0937 l -0.6328125,2.02344 -2.2832032,0 a 0.1323049,0.1323049 0 0 0 -0.082031,0.23632 l 1.7792969,1.39844 -0.6328125,2.0293 a 0.1323049,0.1323049 0 0 0 0.1972656,0.15234 l 1.7792969,-1.14453 1.78125,1.14453 a 0.1323049,0.1323049 0 0 0 0.1972656,-0.15234 l -0.6328125,-2.0293 1.7792969,-1.39844 a 0.1323049,0.1323049 0 0 0 -0.082031,-0.23632 l -2.2832031,0 -0.6328125,-2.02344 a 0.1323049,0.1323049 0 0 0 -0.1308594,-0.0937 z m 0.00391,0.57617 0.5351562,1.71289 a 0.1323049,0.1323049 0 0 0 0.1269531,0.0937 l 1.9980469,0 -1.5507812,1.21875 a 0.1323049,0.1323049 0 0 0 -0.044922,0.14258 l 0.5527344,1.76953 -1.5449219,-0.99414 a 0.1323049,0.1323049 0 0 0 -0.1425781,0 l -1.5449219,0.99414 0.5527344,-1.76953 A 0.1323049,0.1323049 0 0 0 3.125,293.45703 l -1.5527344,-1.21875 2,0 a 0.1323049,0.1323049 0 0 0 0.125,-0.0937 l 0.5351563,-1.71289 z"></path><path style="color:#000000;font-style:normal;font-variant:normal;font-weight:normal;font-stretch:normal;font-size:medium;line-height:normal;font-family:sans-serif;text-indent:0;text-align:start;text-decoration:none;text-decoration-line:none;text-decoration-style:solid;text-decoration-color:#000000;letter-spacing:normal;word-spacing:normal;text-transform:none;direction:ltr;block-progression:tb;writing-mode:lr-tb;baseline-shift:baseline;text-anchor:start;white-space:normal;clip-rule:nonzero;display:inline;overflow:visible;visibility:visible;opacity:1;isolation:auto;mix-blend-mode:normal;color-interpolation:sRGB;color-interpolation-filters:linearRGB;solid-color:#000000;solid-opacity:1;fill:#000000;fill-opacity:1;fill-rule:nonzero;stroke:none;stroke-width:0.26458335;stroke-linecap:round;stroke-linejoin:round;stroke-miterlimit:4;stroke-dasharray:none;stroke-dashoffset:0;stroke-opacity:1;color-rendering:auto;image-rendering:auto;shape-rendering:auto;text-rendering:auto;enable-background:accumulate" d="m 4.2324219,292.89844 c -0.3272147,0 -0.5937494,0.26849 -0.59375,0.5957 -6.5e-6,0.32722 0.2665304,0.5957 0.59375,0.5957 0.3272196,0 0.5957095,-0.26848 0.5957031,-0.5957 -6e-7,-0.32721 -0.2684884,-0.5957 -0.5957031,-0.5957 z m 0,0.26562 c 0.1842234,0 0.3320309,0.14586 0.3320312,0.33008 3.7e-6,0.18423 -0.1478049,0.33008 -0.3320312,0.33008 -0.1842263,0 -0.3300818,-0.14585 -0.3300781,-0.33008 3e-7,-0.18422 0.1458547,-0.33008 0.3300781,-0.33008 z"></path><path style="color:#000000;font-style:normal;font-variant:normal;font-weight:normal;font-stretch:normal;font-size:medium;line-height:normal;font-family:sans-serif;text-indent:0;text-align:start;text-decoration:none;text-decoration-line:none;text-decoration-style:solid;text-decoration-color:#000000;letter-spacing:normal;word-spacing:normal;text-transform:none;direction:ltr;block-progression:tb;writing-mode:lr-tb;baseline-shift:baseline;text-anchor:start;white-space:normal;clip-rule:nonzero;display:inline;overflow:visible;visibility:visible;opacity:1;isolation:auto;mix-blend-mode:normal;color-interpolation:sRGB;color-interpolation-filters:linearRGB;solid-color:#000000;solid-opacity:1;fill:#000000;fill-opacity:1;fill-rule:evenodd;stroke:none;stroke-width:0.26458335px;stroke-linecap:round;stroke-linejoin:round;stroke-miterlimit:4;stroke-dasharray:none;stroke-dashoffset:0;stroke-opacity:1;color-rendering:auto;image-rendering:auto;shape-rendering:auto;text-rendering:auto;enable-background:accumulate" d="m 3.8242188,292.43555 a 0.13298581,0.13298581 0 1 0 0.013672,0.26562 l 0.7910156,0 a 0.13281,0.13281 0 0 0 0,-0.26562 l -0.7910156,0 a 0.1323049,0.1323049 0 0 0 -0.013672,0 z"></path></g></svg>